<svg width="121" height="83" viewBox="0 0 121 83" fill="none" xmlns="http://www.w3.org/2000/svg">
<path fill-rule="evenodd" clip-rule="evenodd" d="M6.61732 82.4857L0.0404198 69.1947C-0.0784399 68.9969 0.0800397 68.7595 0.317759 68.7595H2.97229C3.09115 68.7595 3.21001 68.8386 3.24963 68.9178L6.61732 75.8798C6.73618 76.1171 7.05314 76.1171 7.172 75.8798L10.5793 68.8782C10.6189 68.7595 10.7378 68.72 10.8567 68.72H13.5508C13.7885 68.72 13.9074 68.9573 13.8281 69.1551L7.21162 82.4462C7.05314 82.6835 6.73618 82.6835 6.61732 82.4857Z" fill="#EC4042"/>
<path fill-rule="evenodd" clip-rule="evenodd" d="M19.0976 71.845C18.424 72.2406 17.8694 72.7944 17.4335 73.5064C17.0373 74.1788 16.8392 74.9304 16.8392 75.7216C16.8392 76.5127 17.0373 77.2643 17.4335 77.9367C17.8297 78.6488 18.3844 79.2026 19.0976 79.5981C19.7711 80.0332 20.5239 80.231 21.3559 80.231C22.1879 80.231 22.9407 80.0332 23.6142 79.5981C24.3274 79.163 24.8425 78.6092 25.2783 77.9367C25.6745 77.2247 25.8726 76.5127 25.8726 75.7216C25.8726 74.9304 25.6745 74.1788 25.2783 73.5064C24.8821 72.8339 24.3274 72.2801 23.6142 71.845C22.9011 71.4494 22.1483 71.2121 21.3559 71.2121C20.5635 71.2121 19.8107 71.4099 19.0976 71.845ZM17.592 81.9715C16.443 81.3386 15.5318 80.4288 14.8582 79.3212C14.1847 78.2136 13.8281 76.9874 13.8281 75.682C13.8281 74.3766 14.1847 73.1899 14.8582 72.0823C15.5318 70.9747 16.443 70.1045 17.592 69.432C18.741 68.7991 20.0088 68.4431 21.3559 68.4431C22.703 68.4431 23.9708 68.7596 25.1594 69.432C26.3084 70.0649 27.2593 70.9747 27.9328 72.0823C28.6063 73.1899 28.9629 74.4162 28.9629 75.682C28.9629 76.9874 28.6063 78.2136 27.9328 79.3212C27.2593 80.4288 26.348 81.2991 25.1594 81.9715C24.0104 82.6044 22.7426 82.9604 21.3559 82.9604C20.0088 82.9604 18.741 82.6044 17.592 81.9715Z" fill="#EC4042"/>
<path fill-rule="evenodd" clip-rule="evenodd" d="M37.1644 80.0728C38.353 80.0728 39.3831 79.7563 40.1755 79.1234C40.9679 78.4905 41.4037 77.3433 41.4037 75.7215C41.4037 74.0601 41.0075 72.913 40.1755 72.3196C39.3435 71.6867 38.353 71.3703 37.1644 71.3703H34.708C34.5495 71.3703 34.391 71.4889 34.391 71.6867V79.7959C34.391 79.9541 34.5099 80.1123 34.708 80.1123H37.1644V80.0728ZM31.3799 69.0364C31.3799 68.8782 31.4987 68.72 31.6968 68.72H37.1644C39.2642 68.72 40.9679 69.3133 42.2754 70.4605C42.9885 71.0934 43.5432 71.845 43.8998 72.7152C44.2564 73.5855 44.4545 74.5744 44.4545 75.682C44.4545 76.75 44.2564 77.7389 43.8602 78.6487C43.464 79.5585 42.9489 80.3101 42.2357 80.943C41.6018 81.4968 40.849 81.9319 39.9774 82.2484C39.1058 82.5648 38.1549 82.6835 37.1248 82.6835H31.6968C31.5384 82.6835 31.3799 82.5648 31.3799 82.3671V69.0364Z" fill="#EC4042"/>
<path fill-rule="evenodd" clip-rule="evenodd" d="M58.4008 82.5648L54.9539 75.4842C54.835 75.2468 54.518 75.2468 54.3992 75.4842L50.9523 82.6044C50.8334 82.8417 50.4768 82.8417 50.3976 82.5648L45.2074 69.1551C45.1281 68.9573 45.2866 68.7595 45.4847 68.7595H48.0996C48.2185 68.7595 48.3373 68.8386 48.377 68.9573L50.7542 75.3259C50.8334 75.5633 51.19 75.6028 51.3088 75.3655L54.3992 68.9573C54.518 68.72 54.835 68.72 54.9539 68.9573L58.0442 75.3655C58.1631 75.6028 58.5197 75.6028 58.5989 75.3259L61.0157 68.9573C61.0553 68.8386 61.1742 68.7595 61.293 68.7595H63.8683C64.0664 68.7595 64.2249 68.9573 64.1457 69.1551L58.9159 82.5648C58.8762 82.8022 58.5197 82.8022 58.4008 82.5648Z" fill="#485555"/>
<path fill-rule="evenodd" clip-rule="evenodd" d="M69.9302 71.845C69.2566 72.2406 68.7019 72.7944 68.2661 73.5064C67.8699 74.1788 67.6718 74.9304 67.6718 75.7216C67.6718 76.5127 67.8699 77.2643 68.2661 77.9367C68.6623 78.6488 69.217 79.2026 69.9302 79.5981C70.6037 80.0332 71.3565 80.231 72.1885 80.231C73.0205 80.231 73.7733 80.0332 74.4468 79.5981C75.16 79.163 75.675 78.6092 76.1109 77.9367C76.5071 77.2247 76.7052 76.5127 76.7052 75.7216C76.7052 74.9304 76.5071 74.1788 76.1109 73.5064C75.7147 72.8339 75.16 72.2801 74.4468 71.845C73.7337 71.4494 72.9809 71.2121 72.1885 71.2121C71.3565 71.2121 70.6037 71.4099 69.9302 71.845ZM68.385 81.9715C67.236 81.3386 66.3247 80.4288 65.6512 79.3212C64.9777 78.2136 64.6211 76.9874 64.6211 75.682C64.6211 74.3766 64.9777 73.1899 65.6512 72.0823C66.3247 70.9747 67.236 70.1045 68.385 69.432C69.534 68.7991 70.8018 68.4431 72.1489 68.4431C73.4959 68.4431 74.7638 68.7596 75.9524 69.432C77.1014 70.0649 78.0522 70.9747 78.7258 72.0823C79.3993 73.1899 79.7559 74.4162 79.7559 75.682C79.7559 76.9874 79.3993 78.2136 78.7258 79.3212C78.0522 80.4288 77.141 81.2991 75.9524 81.9715C74.8034 82.6044 73.5356 82.9604 72.1489 82.9604C70.8018 82.9604 69.534 82.6044 68.385 81.9715Z" fill="#485555"/>
<path fill-rule="evenodd" clip-rule="evenodd" d="M88.4322 75.7215C88.9473 75.7215 89.4227 75.5237 89.8586 75.1677C90.2944 74.8117 90.4925 74.2579 90.4925 73.5855C90.4925 73.0317 90.334 72.5174 90.0567 72.0427C89.7793 71.5681 89.2246 71.3307 88.4322 71.3307H85.5004C85.3419 71.3307 85.1834 71.4494 85.1834 71.6472V75.4051C85.1834 75.5633 85.3023 75.7215 85.5004 75.7215H88.4322ZM82.2119 82.3671V68.9969C82.2119 68.8386 82.3308 68.6804 82.5289 68.6804H88.4322C89.4227 68.6804 90.2944 68.8782 91.0868 69.2738C91.8396 69.6693 92.4339 70.2627 92.8697 70.9747C93.3055 71.7263 93.5036 72.557 93.5036 73.5063C93.5036 74.4953 93.2659 75.4051 92.7508 76.1962C92.2358 76.9873 91.5622 77.5807 90.651 77.9367C91.483 79.0047 92.5527 80.3892 93.8998 82.1297C94.0583 82.3275 93.8998 82.6044 93.6621 82.6044H90.8094C90.7302 82.6044 90.651 82.5649 90.5717 82.4857C89.7793 81.4573 88.67 80.0728 87.3229 78.2532H85.54C85.3815 78.2532 85.223 78.3718 85.223 78.5696V82.3275C85.223 82.4857 85.1042 82.644 84.9061 82.644H82.4893C82.3308 82.6835 82.2119 82.5253 82.2119 82.3671Z" fill="#485555"/>
<path fill-rule="evenodd" clip-rule="evenodd" d="M98.892 82.6835H96.4752C96.3167 82.6835 96.1582 82.5648 96.1582 82.3671V68.9969C96.1582 68.8386 96.2771 68.6804 96.4752 68.6804H98.892C99.0505 68.6804 99.2089 68.7991 99.2089 68.9969V74.5348L104.597 68.7991C104.637 68.72 104.716 68.72 104.835 68.72H107.727C108.005 68.72 108.123 69.0364 107.925 69.2342L102.854 74.4557C102.735 74.5744 102.735 74.7326 102.814 74.8513L108.321 82.2088C108.48 82.4066 108.321 82.6835 108.084 82.6835H105.112C105.033 82.6835 104.914 82.644 104.875 82.5648L100.556 76.75L99.2089 78.174V82.4066C99.2089 82.5253 99.0505 82.6835 98.892 82.6835Z" fill="#485555"/>
<path fill-rule="evenodd" clip-rule="evenodd" d="M112.878 79.6772C113.79 80.0332 114.622 80.231 115.374 80.231C116.167 80.231 116.801 80.0728 117.276 79.7564C117.752 79.4399 117.989 79.0839 117.989 78.6488C117.989 78.2927 117.87 78.0158 117.593 77.8181C117.316 77.6203 116.959 77.4225 116.563 77.3434C116.127 77.2247 115.573 77.106 114.899 76.9874C113.988 76.8291 113.156 76.6314 112.363 76.394C111.611 76.1567 110.897 75.7216 110.263 75.1282C109.63 74.5349 109.313 73.7042 109.313 72.7152C109.313 71.2121 109.867 70.1441 110.977 69.4716C112.086 68.7991 113.393 68.4827 114.859 68.4827C116.008 68.4827 116.999 68.6409 117.87 68.9573C118.623 69.2342 119.416 69.6298 120.168 70.1836C120.287 70.2627 120.327 70.4605 120.248 70.6187L118.901 72.4383C118.821 72.557 118.623 72.5966 118.504 72.5175C117.95 72.1614 117.395 71.845 116.801 71.6472C116.127 71.4099 115.454 71.2516 114.78 71.2516C114.186 71.2516 113.631 71.3703 113.116 71.5681C112.601 71.7659 112.363 72.1219 112.363 72.6361C112.363 72.9526 112.482 73.1899 112.759 73.3877C113.037 73.5855 113.314 73.7042 113.631 73.7833C113.948 73.8624 114.463 73.9811 115.137 74.1393L115.81 74.258C116.88 74.4557 117.752 74.6931 118.425 74.9304C119.138 75.1678 119.733 75.6029 120.248 76.1962C120.763 76.7896 121 77.5807 121 78.6488C121 80.0728 120.485 81.1408 119.495 81.8924C118.504 82.644 117.118 83 115.414 83C112.997 83 110.977 82.3275 109.313 80.9826C109.194 80.9035 109.154 80.7057 109.273 80.587L110.541 78.7674C110.62 78.6488 110.818 78.6092 110.977 78.6883C111.452 79.0443 112.126 79.4003 112.878 79.6772Z" fill="#485555"/>
<path fill-rule="evenodd" clip-rule="evenodd" d="M48.7733 22.6759L42.6719 16.6237L58.916 0.445014C59.5103 -0.148338 60.4216 -0.148338 61.0159 0.445014L72.9811 12.3912L49.4469 22.8341C49.2092 22.9133 48.9318 22.8737 48.7733 22.6759Z" fill="#6D7E7F"/>
<path fill-rule="evenodd" clip-rule="evenodd" d="M77.2204 39.7248L60.9762 55.9036C60.3819 56.4969 59.4706 56.4969 58.8763 55.9036L46.9111 43.9574L70.4454 33.5144C70.6831 33.3957 70.9208 33.4749 71.1189 33.6331L77.2204 39.7248Z" fill="#6D7E7F"/>
<path fill-rule="evenodd" clip-rule="evenodd" d="M45.445 42.4147L32.1723 29.1632C31.578 28.5698 31.578 27.66 32.1723 27.0667L41.2056 18.0477L47.8618 24.6933C48.2976 25.1284 48.9711 25.2471 49.5258 25.0097L74.4467 13.9338L87.7194 27.1458C88.3137 27.7391 88.3137 28.649 87.7194 29.2423L78.6861 38.2612L72.0299 31.6553C71.5941 31.2201 70.9206 31.1015 70.3659 31.3388L45.445 42.4147Z" fill="#EC4042"/>
</svg>
