<svg width="103" height="70" viewBox="0 0 103 70" fill="none" xmlns="http://www.w3.org/2000/svg">
<g clip-path="url(#clip0_1318_9872)">
<path fill-rule="evenodd" clip-rule="evenodd" d="M5.63293 69.5662L0.0344069 58.3569C-0.0667712 58.1901 0.068133 57.9899 0.270489 57.9899H2.53013C2.63131 57.9899 2.73249 58.0566 2.76622 58.1233L5.63293 63.9949C5.73411 64.1951 6.00392 64.1951 6.10509 63.9949L9.00553 58.09C9.03926 57.9899 9.14044 57.9565 9.24161 57.9565H11.535C11.7373 57.9565 11.8385 58.1567 11.7711 58.3235L6.13882 69.5329C6.00392 69.733 5.73411 69.733 5.63293 69.5662Z" fill="#EC4042"/>
<path fill-rule="evenodd" clip-rule="evenodd" d="M16.257 60.5922C15.6837 60.9258 15.2115 61.3929 14.8406 61.9934C14.5033 62.5605 14.3347 63.1944 14.3347 63.8616C14.3347 64.5288 14.5033 65.1627 14.8406 65.7298C15.1778 66.3303 15.65 66.7974 16.257 67.131C16.8304 67.498 17.4712 67.6648 18.1794 67.6648C18.8877 67.6648 19.5285 67.498 20.1018 67.131C20.7089 66.764 21.1473 66.297 21.5183 65.7298C21.8556 65.1293 22.0242 64.5288 22.0242 63.8616C22.0242 63.1944 21.8556 62.5605 21.5183 61.9934C21.181 61.4262 20.7089 60.9592 20.1018 60.5922C19.4947 60.2586 18.854 60.0584 18.1794 60.0584C17.5049 60.0584 16.8641 60.2252 16.257 60.5922ZM14.9755 69.1327C13.9974 68.5989 13.2217 67.8316 12.6484 66.8975C12.075 65.9633 11.7715 64.9292 11.7715 63.8282C11.7715 62.7273 12.075 61.7265 12.6484 60.7924C13.2217 59.8583 13.9974 59.1243 14.9755 58.5572C15.9535 58.0234 17.0327 57.7231 18.1794 57.7231C19.3261 57.7231 20.4053 57.99 21.4171 58.5572C22.3952 59.091 23.2046 59.8583 23.778 60.7924C24.3513 61.7265 24.6548 62.7607 24.6548 63.8282C24.6548 64.9292 24.3513 65.9633 23.778 66.8975C23.2046 67.8316 22.4289 68.5655 21.4171 69.1327C20.4391 69.6664 19.3598 69.9667 18.1794 69.9667C17.0327 69.9667 15.9535 69.6664 14.9755 69.1327Z" fill="#EC4042"/>
<path fill-rule="evenodd" clip-rule="evenodd" d="M31.6359 67.5312C32.6477 67.5312 33.5246 67.2643 34.1991 66.7305C34.8736 66.1967 35.2446 65.2293 35.2446 63.8615C35.2446 62.4603 34.9073 61.4928 34.1991 60.9924C33.4908 60.4586 32.6477 60.1917 31.6359 60.1917H29.5449C29.41 60.1917 29.2751 60.2918 29.2751 60.4586V67.2977C29.2751 67.4311 29.3763 67.5645 29.5449 67.5645H31.6359V67.5312ZM26.7119 58.2234C26.7119 58.09 26.8131 57.9565 26.9817 57.9565H31.6359C33.4234 57.9565 34.8736 58.457 35.9866 59.4244C36.5936 59.9582 37.0658 60.5921 37.3693 61.326C37.6729 62.06 37.8415 62.894 37.8415 63.8281C37.8415 64.7289 37.6729 65.5629 37.3356 66.3302C36.9984 67.0975 36.5599 67.7314 35.9528 68.2651C35.4132 68.7322 34.7724 69.0992 34.0305 69.366C33.2885 69.6329 32.4791 69.733 31.6022 69.733H26.9817C26.8468 69.733 26.7119 69.6329 26.7119 69.4661V58.2234Z" fill="#EC4042"/>
<path fill-rule="evenodd" clip-rule="evenodd" d="M49.7124 69.6333L46.7782 63.6616C46.677 63.4615 46.4072 63.4615 46.306 63.6616L43.3719 69.6666C43.2707 69.8668 42.9672 69.8668 42.8997 69.6333L38.4816 58.3238C38.4142 58.157 38.5491 57.9902 38.7177 57.9902H40.9436C41.0448 57.9902 41.146 58.057 41.1797 58.157L43.2033 63.5282C43.2707 63.7283 43.5742 63.7617 43.6754 63.5615L46.306 58.157C46.4072 57.9569 46.677 57.9569 46.7782 58.157L49.4088 63.5615C49.51 63.7617 49.8136 63.7617 49.881 63.5282L51.9383 58.157C51.972 58.057 52.0732 57.9902 52.1744 57.9902H54.3666C54.5352 57.9902 54.6701 58.157 54.6026 58.3238L50.1508 69.6333C50.1171 69.8334 49.8136 69.8334 49.7124 69.6333Z" fill="white"/>
<path fill-rule="evenodd" clip-rule="evenodd" d="M59.5271 60.5922C58.9538 60.9258 58.4816 61.3929 58.1106 61.9934C57.7733 62.5605 57.6047 63.1944 57.6047 63.8616C57.6047 64.5288 57.7733 65.1627 58.1106 65.7298C58.4479 66.3303 58.92 66.7974 59.5271 67.131C60.1004 67.498 60.7412 67.6648 61.4495 67.6648C62.1577 67.6648 62.7985 67.498 63.3719 67.131C63.9789 66.764 64.4174 66.297 64.7884 65.7298C65.1256 65.1293 65.2943 64.5288 65.2943 63.8616C65.2943 63.1944 65.1256 62.5605 64.7884 61.9934C64.4511 61.4262 63.9789 60.9592 63.3719 60.5922C62.7648 60.2586 62.124 60.0584 61.4495 60.0584C60.7412 60.0584 60.1004 60.2252 59.5271 60.5922ZM58.2118 69.1327C57.2337 68.5989 56.458 67.8316 55.8847 66.8975C55.3113 65.9633 55.0078 64.9292 55.0078 63.8282C55.0078 62.7273 55.3113 61.7265 55.8847 60.7924C56.458 59.8583 57.2337 59.1243 58.2118 58.5572C59.1898 58.0234 60.2691 57.7231 61.4158 57.7231C62.5624 57.7231 63.6417 57.99 64.6535 58.5572C65.6315 59.091 66.4409 59.8583 67.0143 60.7924C67.5876 61.7265 67.8912 62.7607 67.8912 63.8282C67.8912 64.9292 67.5876 65.9633 67.0143 66.8975C66.4409 67.8316 65.6652 68.5655 64.6535 69.1327C63.6754 69.6664 62.5962 69.9667 61.4158 69.9667C60.2691 69.9667 59.1898 69.6664 58.2118 69.1327Z" fill="white"/>
<path fill-rule="evenodd" clip-rule="evenodd" d="M75.2774 63.8616C75.7158 63.8616 76.1206 63.6948 76.4916 63.3946C76.8625 63.0943 77.0312 62.6273 77.0312 62.0601C77.0312 61.5931 76.8963 61.1594 76.6602 60.759C76.4241 60.3587 75.9519 60.1585 75.2774 60.1585H72.7817C72.6468 60.1585 72.5119 60.2586 72.5119 60.4254V63.5947C72.5119 63.7282 72.6131 63.8616 72.7817 63.8616H75.2774ZM69.9824 69.4663V58.1902C69.9824 58.0568 70.0836 57.9233 70.2522 57.9233H75.2774C76.1206 57.9233 76.8625 58.0901 77.5371 58.4238C78.1778 58.7574 78.6837 59.2578 79.0547 59.8583C79.4257 60.4921 79.5943 61.1927 79.5943 61.9934C79.5943 62.8274 79.392 63.5947 78.9536 64.262C78.5151 64.9292 77.9418 65.4296 77.1661 65.7298C77.8743 66.6306 78.7849 67.7982 79.9316 69.2661C80.0665 69.4329 79.9316 69.6665 79.7292 69.6665H77.301C77.2335 69.6665 77.1661 69.6331 77.0986 69.5664C76.4241 68.699 75.4798 67.5314 74.3331 65.9967H72.8154C72.6805 65.9967 72.5456 66.0968 72.5456 66.2636V69.4329C72.5456 69.5664 72.4444 69.6998 72.2758 69.6998H70.2185C70.0836 69.7332 69.9824 69.5997 69.9824 69.4663Z" fill="white"/>
<path fill-rule="evenodd" clip-rule="evenodd" d="M84.1806 69.7332H82.1233C81.9884 69.7332 81.8535 69.6331 81.8535 69.4663V58.1902C81.8535 58.0568 81.9547 57.9233 82.1233 57.9233H84.1806C84.3155 57.9233 84.4504 58.0234 84.4504 58.1902V62.8608L89.0372 58.0234C89.0709 57.9567 89.1383 57.9567 89.2395 57.9567H91.7015C91.9376 57.9567 92.0388 58.2236 91.8701 58.3904L87.5532 62.7941C87.452 62.8941 87.452 63.0276 87.5195 63.1277L92.2074 69.3328C92.3423 69.4996 92.2074 69.7332 92.005 69.7332H89.4756C89.4081 69.7332 89.307 69.6998 89.2732 69.6331L85.5971 64.729L84.4504 65.93V69.4996C84.4504 69.5997 84.3155 69.7332 84.1806 69.7332Z" fill="white"/>
<path fill-rule="evenodd" clip-rule="evenodd" d="M96.0862 67.1975C96.8619 67.4978 97.5702 67.6646 98.211 67.6646C98.8855 67.6646 99.4251 67.5312 99.8298 67.2643C100.235 66.9974 100.437 66.6971 100.437 66.3302C100.437 66.0299 100.336 65.7964 100.1 65.6296C99.8635 65.4628 99.56 65.296 99.2227 65.2292C98.8518 65.1292 98.3796 65.0291 97.8062 64.929C97.0305 64.7956 96.3223 64.6287 95.6478 64.4286C95.007 64.2284 94.3999 63.8614 93.8603 63.361C93.3207 62.8606 93.0509 62.16 93.0509 61.326C93.0509 60.0583 93.523 59.1575 94.4674 58.5904C95.4117 58.0232 96.5247 57.7563 97.7725 57.7563C98.7506 57.7563 99.5937 57.8898 100.336 58.1567C100.976 58.3902 101.651 58.7238 102.292 59.1909C102.393 59.2576 102.427 59.4244 102.359 59.5578L101.213 61.0925C101.145 61.1925 100.976 61.2259 100.875 61.1592C100.403 60.8589 99.931 60.592 99.4251 60.4252C98.8517 60.2251 98.2784 60.0916 97.7051 60.0916C97.1992 60.0916 96.727 60.1917 96.2886 60.3585C95.8501 60.5253 95.6478 60.8256 95.6478 61.2593C95.6478 61.5262 95.749 61.7263 95.985 61.8931C96.2211 62.0599 96.4572 62.16 96.727 62.2267C96.9968 62.2935 97.4353 62.3935 98.0086 62.527L98.5819 62.6271C99.4925 62.7939 100.235 62.994 100.808 63.1942C101.415 63.3944 101.921 63.7614 102.359 64.2618C102.798 64.7622 103 65.4294 103 66.3302C103 67.5312 102.562 68.4319 101.718 69.0658C100.875 69.6996 99.6949 69.9999 98.2447 69.9999C96.1874 69.9999 94.4674 69.4327 93.0509 68.2985C92.9497 68.2317 92.916 68.0649 93.0171 67.9649L94.0964 66.4302C94.1638 66.3302 94.3325 66.2968 94.4674 66.3635C94.8721 66.6638 95.4454 66.964 96.0862 67.1975Z" fill="white"/>
<path fill-rule="evenodd" clip-rule="evenodd" d="M41.5171 19.1243L36.3232 14.02L50.1509 0.375313C50.6568 -0.125104 51.4325 -0.125104 51.9384 0.375313L62.1237 10.4504L42.0904 19.2577C41.888 19.3244 41.652 19.2911 41.5171 19.1243Z" fill="white"/>
<path fill-rule="evenodd" clip-rule="evenodd" d="M65.733 33.5027L51.9054 47.1474C51.3995 47.6478 50.6238 47.6478 50.1179 47.1474L39.9326 37.0723L59.9659 28.265C60.1682 28.1649 60.3706 28.2316 60.5392 28.3651L65.733 33.5027Z" fill="white"/>
<path fill-rule="evenodd" clip-rule="evenodd" d="M38.6845 35.7715L27.3863 24.5955C26.8804 24.0951 26.8804 23.3278 27.3863 22.8274L35.0758 15.221L40.7418 20.8257C41.1128 21.1927 41.6861 21.2927 42.1583 21.0926L63.3719 11.7515L74.6702 22.8941C75.176 23.3945 75.176 24.1618 74.6702 24.6622L66.9806 32.2686L61.3146 26.6973C60.9437 26.3303 60.3703 26.2302 59.8982 26.4304L38.6845 35.7715Z" fill="#EC4042"/>
</g>
<defs>
<clipPath id="clip0_1318_9872">
<rect width="103" height="70" fill="white"/>
</clipPath>
</defs>
</svg>
